<?xml version="1.0" encoding="utf-8"?>
<!-- Generator: Adobe Illustrator 27.5.0, SVG Export Plug-In . SVG Version: 6.00 Build 0)  -->
<svg version="1.1" id="katman_1" xmlns="http://www.w3.org/2000/svg" xmlns:xlink="http://www.w3.org/1999/xlink" x="0px" y="0px"
	 viewBox="0 0 841.89 595.28" style="enable-background:new 0 0 841.89 595.28;" xml:space="preserve">
<style type="text/css">
	.st0{fill:#221F20;}
</style>
<path class="st0" d="M180.24,54.73h43.89c0.33,127.05,0.07,254.12,0.07,381.17c0,42.71-20.78,81.03-56.52,104.41h-0.09
	c-12.4-19.94-19.87-31.93-22.39-35.96c-0.14-0.22-0.21-0.4-0.21-0.51c12.31-8.67,23.48-21.14,29.08-35.32
	c4.09-10.36,6.13-21,6.13-31.92C180.22,309.3,180.23,182.02,180.24,54.73z"/>
<path class="st0" d="M313.98,54.73h43.93c0.07,122.51,0.03,244.99,0.03,367.52c0,0.13,0.11,0.24,0.24,0.24l0,0H533.7
	c0.15,0,0.29,0.08,0.38,0.21l26.2,42.53c0.03,0.05,0.02,0.08-0.05,0.08H314.09c-0.07,0-0.13-0.06-0.13-0.13L313.98,54.73z"/>
<path class="st0" d="M447.71,54.73h121.48c60.57,1.76,113.6,49.01,114.87,111.29c1.24,60.82-41.58,108.09-101.21,115.67
	c-0.06,0.01-0.11,0.07-0.1,0.13c0,0.02,0.01,0.03,0.02,0.05L697,465.24v0.09l-46.76-0.02c-0.11,0-0.22-0.06-0.28-0.16L536.45,283.23
	c-0.11-0.18-0.3-0.28-0.51-0.28c-29.72-0.13-59.24-0.14-88.55-0.03c-0.14,0-0.25-0.11-0.25-0.25l0,0v-42.37
	c0-0.1,0.08-0.18,0.18-0.18c39.99,0,79.98-0.04,119.98-0.07c28.9-0.02,54.48-16.32,65.76-43.04c9.59-22.72,7.35-48.89-6.62-69.24
	c-12.39-18.05-32.57-28.78-54.23-30.04c-2.95-0.17-5.9-0.26-8.85-0.25c-38.41,0.04-76.9,0.06-115.47,0.06c-0.11,0-0.2-0.09-0.2-0.2
	L447.71,54.73z"/>
</svg>
